<svg version="1.1" viewBox="0.0 0.0 600.0 371.0" fill="none" stroke="none" stroke-linecap="square" stroke-miterlimit="10" width="600" height="371" xmlns:xlink="http://www.w3.org/1999/xlink" xmlns="http://www.w3.org/2000/svg"><path fill="#ffffff" d="M0 0L600.0 0L600.0 371.0L0 371.0L0 0Z" fill-rule="nonzero"/><path fill="#0f9d58" d="M255.8555 59.57038C270.15527 55.15948 285.0354 52.916668 300.0 52.916668L300.0 202.68333Z" fill-rule="nonzero"/><path fill="#f4b400" d="M215.63344 78.94031C227.99777 70.51044 241.55573 63.981277 255.8555 59.57038L300.0 202.68333Z" fill-rule="nonzero"/><path fill="#db4437" d="M198.1328 312.47006C164.72198 281.46936 147.2461 236.9415 150.65211 191.49126C154.05814 146.04102 177.97539 104.61513 215.63344 78.94031L300.0 202.68333Z" fill-rule="nonzero"/><path fill="#4285f4" d="M300.0 52.916668C367.0919 52.916668 425.99783 97.53617 444.16904 162.12045C462.34024 226.70474 435.34253 295.49377 378.0936 330.47787C320.8447 365.46194 247.31464 358.10416 198.1328 312.47006L300.0 202.68333Z" fill-rule="nonzero"/><path fill="#666666" d="M22.33125 60.760418L20.4875 60.760418L20.4875 63.916668L19.45625 63.916668L19.45625 56.088543L22.034374 56.088543Q23.3625 56.088543 24.065624 56.697918Q24.784374 57.291668 24.784374 58.447918Q24.784374 59.182293 24.39375 59.729168Q24.003124 60.260418 23.3 60.526043L25.128124 63.854168L25.128124 63.916668L24.01875 63.916668L22.33125 60.760418ZM20.4875 59.916668L22.08125 59.916668Q22.846874 59.916668 23.3 59.526043Q23.753124 59.119793 23.753124 58.447918Q23.753124 57.729168 23.315624 57.338543Q22.878124 56.947918 22.065624 56.947918L20.4875 56.947918L20.4875 59.916668ZM28.70625 64.02605Q27.534374 64.02605 26.784374 63.260418Q26.05 62.479168 26.05 61.166668L26.05 60.994793Q26.05 60.119793 26.378124 59.447918Q26.70625 58.760418 27.3 58.385418Q27.89375 57.994793 28.596874 57.994793Q29.721874 57.994793 30.346874 58.744793Q30.9875 59.494793 30.9875 60.885418L30.9875 61.291668L27.05 61.291668Q27.065624 62.151043 27.534374 62.682293Q28.01875 63.213543 28.76875 63.213543Q29.3 63.213543 29.659374 62.994793Q30.01875 62.776043 30.3 62.432293L30.909374 62.901043Q30.175 64.02605 28.70625 64.02605ZM28.596874 58.807293Q27.9875 58.807293 27.58125 59.244793Q27.175 59.682293 27.08125 60.479168L29.9875 60.479168L29.9875 60.401043Q29.940624 59.651043 29.565624 59.229168Q29.20625 58.807293 28.596874 58.807293ZM35.89375 63.916668Q35.8 63.744793 35.753124 63.307293Q35.05 64.02605 34.096874 64.02605Q33.2375 64.02605 32.675 63.541668Q32.128124 63.057293 32.128124 62.307293Q32.128124 61.401043 32.815624 60.901043Q33.51875 60.385418 34.76875 60.385418L35.7375 60.385418L35.7375 59.932293Q35.7375 59.416668 35.425 59.104168Q35.1125 58.791668 34.503124 58.791668Q33.971874 58.791668 33.6125 59.072918Q33.253124 59.338543 33.253124 59.713543L32.253124 59.713543Q32.253124 59.276043 32.565624 58.869793Q32.878124 58.463543 33.39375 58.229168Q33.925 57.994793 34.565624 57.994793Q35.565624 57.994793 36.128124 58.494793Q36.70625 58.994793 36.721874 59.885418L36.721874 62.557293Q36.721874 63.354168 36.925 63.822918L36.925 63.916668L35.89375 63.916668ZM34.2375 63.166668Q34.70625 63.166668 35.128124 62.932293Q35.55 62.682293 35.7375 62.291668L35.7375 61.104168L34.95625 61.104168Q33.128124 61.104168 33.128124 62.166668Q33.128124 62.635418 33.440624 62.901043Q33.753124 63.166668 34.2375 63.166668ZM38.065624 60.963543Q38.065624 59.619793 38.690624 58.807293Q39.33125 57.994793 40.346874 57.994793Q41.378124 57.994793 41.971874 58.697918L41.971874 55.666668L42.971874 55.666668L42.971874 63.916668L42.05 63.916668L42.003124 63.291668Q41.409374 64.02605 40.346874 64.02605Q39.33125 64.02605 38.690624 63.197918Q38.065624 62.369793 38.065624 61.041668L38.065624 60.963543ZM39.05 61.072918Q39.05 62.057293 39.45625 62.619793Q39.878124 63.182293 40.596874 63.182293Q41.534374 63.182293 41.971874 62.338543L41.971874 59.666668Q41.51875 58.838543 40.596874 58.838543Q39.878124 58.838543 39.45625 59.401043Q39.05 59.963543 39.05 61.072918ZM45.378124 63.916668L44.39375 63.916668L44.39375 58.104168L45.378124 58.104168L45.378124 63.916668ZM44.3 56.557293Q44.3 56.322918 44.440624 56.166668Q44.596874 55.994793 44.89375 55.994793Q45.190624 55.994793 45.33125 56.166668Q45.4875 56.322918 45.4875 56.572918Q45.4875 56.807293 45.33125 56.963543Q45.190624 57.119793 44.89375 57.119793Q44.596874 57.119793 44.440624 56.963543Q44.3 56.807293 44.3 56.557293ZM48.2375 58.104168L48.26875 58.838543Q48.940624 57.994793 50.01875 57.994793Q51.8625 57.994793 51.878124 60.072918L51.878124 63.916668L50.878124 63.916668L50.878124 60.072918Q50.878124 59.447918 50.596874 59.151043Q50.315624 58.838543 49.70625 58.838543Q49.2375 58.838543 48.8625 59.104168Q48.503124 59.354168 48.3 59.776043L48.3 63.916668L47.3 63.916668L47.3 58.104168L48.2375 58.104168ZM53.065624 60.963543Q53.065624 59.604168 53.690624 58.807293Q54.315624 57.994793 55.3625 57.994793Q56.425 57.994793 57.01875 58.744793L57.065624 58.104168L57.971874 58.104168L57.971874 63.776043Q57.971874 64.90105 57.3 65.54167Q56.64375 66.19792 55.503124 66.19792Q54.878124 66.19792 54.26875 65.9323Q53.675 65.66667 53.3625 65.19792L53.878124 64.60417Q54.51875 65.40105 55.440624 65.40105Q56.159374 65.40105 56.565624 64.97917Q56.971874 64.57292 56.971874 63.838543L56.971874 63.338543Q56.378124 64.02605 55.346874 64.02605Q54.33125 64.02605 53.690624 63.213543Q53.065624 62.385418 53.065624 60.963543ZM54.065624 61.072918Q54.065624 62.057293 54.471874 62.619793Q54.878124 63.182293 55.596874 63.182293Q56.534374 63.182293 56.971874 62.322918L56.971874 59.666668Q56.51875 58.838543 55.6125 58.838543Q54.878124 58.838543 54.471874 59.401043Q54.065624 59.963543 54.065624 61.072918ZM59.503124 64.58855L58.64375 64.58855L61.909374 56.088543L62.76875 56.088543L59.503124 64.58855ZM66.14375 61.447918L66.3 62.479168L66.51875 61.557293L68.06563 56.088543L68.925 56.088543L70.44063 61.557293L70.65938 62.494793L70.81563 61.447918L72.03438 56.088543L73.06563 56.088543L71.175 63.916668L70.2375 63.916668L68.62813 58.213543L68.50313 57.619793L68.37813 58.213543L66.70625 63.916668L65.76875 63.916668L63.878124 56.088543L64.90938 56.088543L66.14375 61.447918ZM77.1125 58.994793Q76.87813 58.963543 76.62813 58.963543Q75.64375 58.963543 75.3 59.791668L75.3 63.916668L74.3 63.916668L74.3 58.104168L75.26875 58.104168L75.28438 58.776043Q75.76875 57.994793 76.675 57.994793Q76.95625 57.994793 77.1125 58.072918L77.1125 58.994793ZM79.37813 63.916668L78.39375 63.916668L78.39375 58.104168L79.37813 58.104168L79.37813 63.916668ZM78.3 56.557293Q78.3 56.322918 78.44063 56.166668Q78.59688 55.994793 78.89375 55.994793Q79.19063 55.994793 79.33125 56.166668Q79.4875 56.322918 79.4875 56.572918Q79.4875 56.807293 79.33125 56.963543Q79.19063 57.119793 78.89375 57.119793Q78.59688 57.119793 78.44063 56.963543Q78.3 56.807293 78.3 56.557293ZM82.64375 56.697918L82.64375 58.104168L83.7375 58.104168L83.7375 58.869793L82.64375 58.869793L82.64375 62.479168Q82.64375 62.822918 82.78438 63.010418Q82.94063 63.182293 83.28438 63.182293Q83.45625 63.182293 83.76875 63.104168L83.76875 63.916668Q83.3625 64.02605 83.00313 64.02605Q82.33125 64.02605 81.9875 63.619793Q81.65938 63.213543 81.65938 62.479168L81.65938 58.869793L80.59688 58.869793L80.59688 58.104168L81.65938 58.104168L81.65938 56.697918L82.64375 56.697918ZM86.37813 63.916668L85.39375 63.916668L85.39375 58.104168L86.37813 58.104168L86.37813 63.916668ZM85.3 56.557293Q85.3 56.322918 85.44063 56.166668Q85.59688 55.994793 85.89375 55.994793Q86.19063 55.994793 86.33125 56.166668Q86.4875 56.322918 86.4875 56.572918Q86.4875 56.807293 86.33125 56.963543Q86.19063 57.119793 85.89375 57.119793Q85.59688 57.119793 85.44063 56.963543Q85.3 56.807293 85.3 56.557293ZM89.2375 58.104168L89.26875 58.838543Q89.94063 57.994793 91.01875 57.994793Q92.8625 57.994793 92.87813 60.072918L92.87813 63.916668L91.87813 63.916668L91.87813 60.072918Q91.87813 59.447918 91.59688 59.151043Q91.31563 58.838543 90.70625 58.838543Q90.2375 58.838543 89.8625 59.104168Q89.50313 59.354168 89.3 59.776043L89.3 63.916668L88.3 63.916668L88.3 58.104168L89.2375 58.104168ZM94.06563 60.963543Q94.06563 59.604168 94.69063 58.807293Q95.31563 57.994793 96.3625 57.994793Q97.425 57.994793 98.01875 58.744793L98.06563 58.104168L98.97188 58.104168L98.97188 63.776043Q98.97188 64.90105 98.3 65.54167Q97.64375 66.19792 96.50313 66.19792Q95.87813 66.19792 95.26875 65.9323Q94.675 65.66667 94.3625 65.19792L94.87813 64.60417Q95.51875 65.40105 96.44063 65.40105Q97.15938 65.40105 97.56563 64.97917Q97.97188 64.57292 97.97188 63.838543L97.97188 63.338543Q97.37813 64.02605 96.34688 64.02605Q95.33125 64.02605 94.69063 63.213543Q94.06563 62.385418 94.06563 60.963543ZM95.06563 61.072918Q95.06563 62.057293 95.47188 62.619793Q95.87813 63.182293 96.59688 63.182293Q97.53438 63.182293 97.97188 62.322918L97.97188 59.666668Q97.51875 58.838543 96.6125 58.838543Q95.87813 58.838543 95.47188 59.401043Q95.06563 59.963543 95.06563 61.072918Z" fill-rule="nonzero"/><path fill="#9e9e9e" d="M23.39375 78.291664L24.4875 78.291664L24.4875 79.104164L23.39375 79.104164L23.39375 80.916664L22.39375 80.916664L22.39375 79.104164L18.83125 79.104164L18.83125 78.510414L22.33125 73.08854L23.39375 73.08854L23.39375 78.291664ZM19.95625 78.291664L22.39375 78.291664L22.39375 74.447914L22.284374 74.666664L19.95625 78.291664ZM25.33125 80.40104Q25.33125 80.135414 25.471874 79.96354Q25.628124 79.791664 25.925 79.791664Q26.2375 79.791664 26.39375 79.96354Q26.565624 80.135414 26.565624 80.40104Q26.565624 80.635414 26.39375 80.80729Q26.2375 80.979164 25.925 80.979164Q25.628124 80.979164 25.471874 80.80729Q25.33125 80.635414 25.33125 80.40104ZM32.940624 75.135414Q32.940624 75.729164 32.628124 76.18229Q32.33125 76.635414 31.8 76.90104Q32.409374 77.15104 32.76875 77.666664Q33.128124 78.166664 33.128124 78.80729Q33.128124 79.822914 32.440624 80.43229Q31.753124 81.02604 30.64375 81.02604Q29.503124 81.02604 28.83125 80.43229Q28.159374 79.822914 28.159374 78.80729Q28.159374 78.166664 28.503124 77.666664Q28.846874 77.15104 29.45625 76.885414Q28.940624 76.635414 28.628124 76.18229Q28.33125 75.71354 28.33125 75.135414Q28.33125 74.15104 28.95625 73.572914Q29.596874 72.99479 30.64375 72.99479Q31.675 72.99479 32.3 73.572914Q32.940624 74.15104 32.940624 75.135414ZM32.128124 78.791664Q32.128124 78.135414 31.70625 77.729164Q31.3 77.30729 30.628124 77.30729Q29.95625 77.30729 29.55 77.71354Q29.14375 78.11979 29.14375 78.791664Q29.14375 79.447914 29.534374 79.83854Q29.940624 80.21354 30.64375 80.21354Q31.33125 80.21354 31.721874 79.83854Q32.128124 79.447914 32.128124 78.791664ZM30.64375 73.80729Q30.05 73.80729 29.690624 74.166664Q29.33125 74.52604 29.33125 75.15104Q29.33125 75.74479 29.690624 76.11979Q30.05 76.479164 30.64375 76.479164Q31.2375 76.479164 31.596874 76.11979Q31.95625 75.74479 31.95625 75.15104Q31.95625 74.55729 31.58125 74.18229Q31.20625 73.80729 30.64375 73.80729ZM34.1125 74.604164Q34.1125 73.90104 34.565624 73.447914Q35.01875 72.979164 35.721874 72.979164Q36.425 72.979164 36.8625 73.447914Q37.315624 73.90104 37.315624 74.635414L37.315624 75.010414Q37.315624 75.729164 36.8625 76.18229Q36.425 76.61979 35.721874 76.61979Q35.034374 76.61979 34.565624 76.18229Q34.1125 75.729164 34.1125 74.979164L34.1125 74.604164ZM34.8625 75.010414Q34.8625 75.43229 35.096874 75.71354Q35.33125 75.979164 35.721874 75.979164Q36.1125 75.979164 36.346874 75.71354Q36.58125 75.447914 36.58125 74.99479L36.58125 74.604164Q36.58125 74.18229 36.346874 73.916664Q36.1125 73.635414 35.70625 73.635414Q35.315624 73.635414 35.08125 73.916664Q34.8625 74.18229 34.8625 74.61979L34.8625 75.010414ZM37.925 78.99479Q37.925 78.291664 38.3625 77.83854Q38.815624 77.385414 39.51875 77.385414Q40.221874 77.385414 40.675 77.83854Q41.128124 78.291664 41.128124 79.041664L41.128124 79.416664Q41.128124 80.11979 40.675 80.572914Q40.2375 81.02604 39.534374 81.02604Q38.83125 81.02604 38.378124 80.58854Q37.925 80.135414 37.925 79.385414L37.925 78.99479ZM38.659374 79.416664Q38.659374 79.83854 38.89375 80.11979Q39.14375 80.385414 39.534374 80.385414Q39.925 80.385414 40.14375 80.11979Q40.378124 79.854164 40.378124 79.40104L40.378124 78.99479Q40.378124 78.572914 40.14375 78.30729Q39.909374 78.041664 39.51875 78.041664Q39.14375 78.041664 38.89375 78.30729Q38.659374 78.572914 38.659374 79.02604L38.659374 79.416664ZM35.95625 80.322914L35.39375 79.96354L39.20625 73.854164L39.76875 74.21354L35.95625 80.322914Z" fill-rule="nonzero"/><path stroke="#757575" stroke-width="1.0" stroke-linecap="butt" d="M18.55 68.416664L144.23334 68.416664L278.79453 61.994133" fill-rule="nonzero"/><path fill="#9e9e9e" d="M280.79453 61.994133C280.79453 60.88956 279.89908 59.994133 278.79453 59.994133C277.68994 59.994133 276.79453 60.88956 276.79453 61.994133C276.79453 63.0987 277.68994 63.994133 278.79453 63.994133C279.89908 63.994133 280.79453 63.0987 280.79453 61.994133" fill-rule="nonzero"/><path fill="#666666" d="M21.440624 91.27604L20.4875 92.27604L20.4875 94.916664L19.45625 94.916664L19.45625 87.08854L20.4875 87.08854L20.4875 90.96354L23.971874 87.08854L25.20625 87.08854L22.128124 90.55729L25.45625 94.916664L24.221874 94.916664L21.440624 91.27604ZM27.378124 94.916664L26.39375 94.916664L26.39375 89.104164L27.378124 89.104164L27.378124 94.916664ZM26.3 87.55729Q26.3 87.322914 26.440624 87.166664Q26.596874 86.99479 26.89375 86.99479Q27.190624 86.99479 27.33125 87.166664Q27.4875 87.322914 27.4875 87.572914Q27.4875 87.80729 27.33125 87.96354Q27.190624 88.11979 26.89375 88.11979Q26.596874 88.11979 26.440624 87.96354Q26.3 87.80729 26.3 87.55729ZM30.2375 89.104164L30.26875 89.83854Q30.940624 88.99479 32.01875 88.99479Q33.8625 88.99479 33.878124 91.072914L33.878124 94.916664L32.878124 94.916664L32.878124 91.072914Q32.878124 90.447914 32.596874 90.15104Q32.315624 89.83854 31.70625 89.83854Q31.2375 89.83854 30.8625 90.104164Q30.503124 90.354164 30.3 90.77604L30.3 94.916664L29.3 94.916664L29.3 89.104164L30.2375 89.104164ZM37.70625 95.02604Q36.534374 95.02604 35.784374 94.260414Q35.05 93.479164 35.05 92.166664L35.05 91.99479Q35.05 91.11979 35.378124 90.447914Q35.70625 89.760414 36.3 89.385414Q36.89375 88.99479 37.596874 88.99479Q38.721874 88.99479 39.346874 89.74479Q39.9875 90.49479 39.9875 91.885414L39.9875 92.291664L36.05 92.291664Q36.065624 93.15104 36.534374 93.68229Q37.01875 94.21354 37.76875 94.21354Q38.3 94.21354 38.659374 93.99479Q39.01875 93.77604 39.3 93.43229L39.909374 93.90104Q39.175 95.02604 37.70625 95.02604ZM37.596874 89.80729Q36.9875 89.80729 36.58125 90.24479Q36.175 90.68229 36.08125 91.479164L38.9875 91.479164L38.9875 91.40104Q38.940624 90.65104 38.565624 90.229164Q38.20625 89.80729 37.596874 89.80729ZM44.690624 93.36979Q44.690624 92.979164 44.378124 92.760414Q44.08125 92.52604 43.315624 92.36979Q42.565624 92.197914 42.128124 91.979164Q41.690624 91.760414 41.471874 91.447914Q41.253124 91.135414 41.253124 90.697914Q41.253124 89.979164 41.8625 89.49479Q42.471874 88.99479 43.409374 88.99479Q44.39375 88.99479 45.003124 89.510414Q45.628124 90.010414 45.628124 90.80729L44.628124 90.80729Q44.628124 90.40104 44.284374 90.104164Q43.940624 89.80729 43.409374 89.80729Q42.8625 89.80729 42.55 90.05729Q42.253124 90.291664 42.253124 90.666664Q42.253124 91.02604 42.534374 91.21354Q42.815624 91.385414 43.565624 91.55729Q44.315624 91.729164 44.76875 91.96354Q45.2375 92.18229 45.45625 92.510414Q45.675 92.83854 45.675 93.30729Q45.675 94.08854 45.05 94.55729Q44.440624 95.02604 43.440624 95.02604Q42.7375 95.02604 42.20625 94.77604Q41.675 94.52604 41.3625 94.08854Q41.065624 93.65104 41.065624 93.135414L42.05 93.135414Q42.08125 93.61979 42.45625 93.916664Q42.83125 94.21354 43.440624 94.21354Q44.003124 94.21354 44.346874 93.99479Q44.690624 93.760414 44.690624 93.36979ZM48.64375 87.697914L48.64375 89.104164L49.7375 89.104164L49.7375 89.86979L48.64375 89.86979L48.64375 93.479164Q48.64375 93.822914 48.784374 94.010414Q48.940624 94.18229 49.284374 94.18229Q49.45625 94.18229 49.76875 94.104164L49.76875 94.916664Q49.3625 95.02604 49.003124 95.02604Q48.33125 95.02604 47.9875 94.61979Q47.659374 94.21354 47.659374 93.479164L47.659374 89.86979L46.596874 89.86979L46.596874 89.104164L47.659374 89.104164L47.659374 87.697914L48.64375 87.697914ZM52.3 89.80729Q52.95625 88.99479 54.01875 88.99479Q55.8625 88.99479 55.878124 91.072914L55.878124 94.916664L54.878124 94.916664L54.878124 91.072914Q54.878124 90.447914 54.596874 90.15104Q54.315624 89.83854 53.70625 89.83854Q53.2375 89.83854 52.8625 90.104164Q52.503124 90.354164 52.3 90.77604L52.3 94.916664L51.3 94.916664L51.3 86.666664L52.3 86.666664L52.3 89.80729ZM59.70625 95.02604Q58.534374 95.02604 57.784374 94.260414Q57.05 93.479164 57.05 92.166664L57.05 91.99479Q57.05 91.11979 57.378124 90.447914Q57.70625 89.760414 58.3 89.385414Q58.89375 88.99479 59.596874 88.99479Q60.721874 88.99479 61.346874 89.74479Q61.9875 90.49479 61.9875 91.885414L61.9875 92.291664L58.05 92.291664Q58.065624 93.15104 58.534374 93.68229Q59.01875 94.21354 59.76875 94.21354Q60.3 94.21354 60.659374 93.99479Q61.01875 93.77604 61.3 93.43229L61.909374 93.90104Q61.175 95.02604 59.70625 95.02604ZM59.596874 89.80729Q58.9875 89.80729 58.58125 90.24479Q58.175 90.68229 58.08125 91.479164L60.9875 91.479164L60.9875 91.40104Q60.940624 90.65104 60.565624 90.229164Q60.20625 89.80729 59.596874 89.80729ZM64.64375 87.697914L64.64375 89.104164L65.7375 89.104164L65.7375 89.86979L64.64375 89.86979L64.64375 93.479164Q64.64375 93.822914 64.78438 94.010414Q64.94063 94.18229 65.28438 94.18229Q65.45625 94.18229 65.76875 94.104164L65.76875 94.916664Q65.3625 95.02604 65.00313 95.02604Q64.33125 95.02604 63.9875 94.61979Q63.659374 94.21354 63.659374 93.479164L63.659374 89.86979L62.596874 89.86979L62.596874 89.104164L63.659374 89.104164L63.659374 87.697914L64.64375 87.697914ZM68.37813 94.916664L67.39375 94.916664L67.39375 89.104164L68.37813 89.104164L68.37813 94.916664ZM67.3 87.55729Q67.3 87.322914 67.44063 87.166664Q67.59688 86.99479 67.89375 86.99479Q68.19063 86.99479 68.33125 87.166664Q68.4875 87.322914 68.4875 87.572914Q68.4875 87.80729 68.33125 87.96354Q68.19063 88.11979 67.89375 88.11979Q67.59688 88.11979 67.44063 87.96354Q67.3 87.80729 67.3 87.55729ZM72.62813 94.21354Q73.15938 94.21354 73.55 93.90104Q73.95625 93.572914 74.00313 93.08854L74.94063 93.08854Q74.90938 93.58854 74.59688 94.041664Q74.28438 94.479164 73.75313 94.760414Q73.22188 95.02604 72.62813 95.02604Q71.44063 95.02604 70.7375 94.229164Q70.05 93.43229 70.05 92.05729L70.05 91.90104Q70.05 91.041664 70.3625 90.385414Q70.675 89.729164 71.25313 89.36979Q71.83125 88.99479 72.62813 88.99479Q73.6125 88.99479 74.25313 89.58854Q74.89375 90.166664 74.94063 91.104164L74.00313 91.104164Q73.95625 90.541664 73.56563 90.18229Q73.19063 89.80729 72.62813 89.80729Q71.87813 89.80729 71.45625 90.354164Q71.03438 90.90104 71.03438 91.93229L71.03438 92.11979Q71.03438 93.135414 71.44063 93.68229Q71.8625 94.21354 72.62813 94.21354Z" fill-rule="nonzero"/><path fill="#9e9e9e" d="M23.39375 109.291664L24.4875 109.291664L24.4875 110.104164L23.39375 110.104164L23.39375 111.916664L22.39375 111.916664L22.39375 110.104164L18.83125 110.104164L18.83125 109.510414L22.33125 104.08854L23.39375 104.08854L23.39375 109.291664ZM19.95625 109.291664L22.39375 109.291664L22.39375 105.447914L22.284374 105.666664L19.95625 109.291664ZM25.33125 111.40104Q25.33125 111.135414 25.471874 110.96354Q25.628124 110.791664 25.925 110.791664Q26.2375 110.791664 26.39375 110.96354Q26.565624 111.135414 26.565624 111.40104Q26.565624 111.635414 26.39375 111.80729Q26.2375 111.979164 25.925 111.979164Q25.628124 111.979164 25.471874 111.80729Q25.33125 111.635414 25.33125 111.40104ZM32.940624 106.135414Q32.940624 106.729164 32.628124 107.18229Q32.33125 107.635414 31.8 107.90104Q32.409374 108.15104 32.76875 108.666664Q33.128124 109.166664 33.128124 109.80729Q33.128124 110.822914 32.440624 111.43229Q31.753124 112.02604 30.64375 112.02604Q29.503124 112.02604 28.83125 111.43229Q28.159374 110.822914 28.159374 109.80729Q28.159374 109.166664 28.503124 108.666664Q28.846874 108.15104 29.45625 107.885414Q28.940624 107.635414 28.628124 107.18229Q28.33125 106.71354 28.33125 106.135414Q28.33125 105.15104 28.95625 104.572914Q29.596874 103.99479 30.64375 103.99479Q31.675 103.99479 32.3 104.572914Q32.940624 105.15104 32.940624 106.135414ZM32.128124 109.791664Q32.128124 109.135414 31.70625 108.729164Q31.3 108.30729 30.628124 108.30729Q29.95625 108.30729 29.55 108.71354Q29.14375 109.11979 29.14375 109.791664Q29.14375 110.447914 29.534374 110.83854Q29.940624 111.21354 30.64375 111.21354Q31.33125 111.21354 31.721874 110.83854Q32.128124 110.447914 32.128124 109.791664ZM30.64375 104.80729Q30.05 104.80729 29.690624 105.166664Q29.33125 105.52604 29.33125 106.15104Q29.33125 106.74479 29.690624 107.11979Q30.05 107.479164 30.64375 107.479164Q31.2375 107.479164 31.596874 107.11979Q31.95625 106.74479 31.95625 106.15104Q31.95625 105.55729 31.58125 105.18229Q31.20625 104.80729 30.64375 104.80729ZM34.1125 105.604164Q34.1125 104.90104 34.565624 104.447914Q35.01875 103.979164 35.721874 103.979164Q36.425 103.979164 36.8625 104.447914Q37.315624 104.90104 37.315624 105.635414L37.315624 106.010414Q37.315624 106.729164 36.8625 107.18229Q36.425 107.61979 35.721874 107.61979Q35.034374 107.61979 34.565624 107.18229Q34.1125 106.729164 34.1125 105.979164L34.1125 105.604164ZM34.8625 106.010414Q34.8625 106.43229 35.096874 106.71354Q35.33125 106.979164 35.721874 106.979164Q36.1125 106.979164 36.346874 106.71354Q36.58125 106.447914 36.58125 105.99479L36.58125 105.604164Q36.58125 105.18229 36.346874 104.916664Q36.1125 104.635414 35.70625 104.635414Q35.315624 104.635414 35.08125 104.916664Q34.8625 105.18229 34.8625 105.61979L34.8625 106.010414ZM37.925 109.99479Q37.925 109.291664 38.3625 108.83854Q38.815624 108.385414 39.51875 108.385414Q40.221874 108.385414 40.675 108.83854Q41.128124 109.291664 41.128124 110.041664L41.128124 110.416664Q41.128124 111.11979 40.675 111.572914Q40.2375 112.02604 39.534374 112.02604Q38.83125 112.02604 38.378124 111.58854Q37.925 111.135414 37.925 110.385414L37.925 109.99479ZM38.659374 110.416664Q38.659374 110.83854 38.89375 111.11979Q39.14375 111.385414 39.534374 111.385414Q39.925 111.385414 40.14375 111.11979Q40.378124 110.854164 40.378124 110.40104L40.378124 109.99479Q40.378124 109.572914 40.14375 109.30729Q39.909374 109.041664 39.51875 109.041664Q39.14375 109.041664 38.89375 109.30729Q38.659374 109.572914 38.659374 110.02604L38.659374 110.416664ZM35.95625 111.322914L35.39375 110.96354L39.20625 104.854164L39.76875 105.21354L35.95625 111.322914Z" fill-rule="nonzero"/><path stroke="#757575" stroke-width="1.0" stroke-linecap="butt" d="M18.55 99.416664L144.23334 99.416664L238.26775 74.49499" fill-rule="nonzero"/><path fill="#9e9e9e" d="M240.26775 74.49499C240.26775 73.39041 239.37231 72.49499 238.26775 72.49499C237.16318 72.49499 236.26775 73.39041 236.26775 74.49499C236.26775 75.599556 237.16318 76.49499 238.26775 76.49499C239.37231 76.49499 240.26775 75.599556 240.26775 74.49499" fill-rule="nonzero"/><path fill="#666666" d="M23.76875 185.50398L20.503124 185.50398L19.76875 187.55086L18.70625 187.55086L21.690624 179.72273L22.596874 179.72273L25.58125 187.55086L24.51875 187.55086L23.76875 185.50398ZM20.815624 184.66023L23.471874 184.66023L22.14375 181.00398L20.815624 184.66023ZM29.89375 186.97273Q29.315624 187.66023 28.190624 187.66023Q27.253124 187.66023 26.76875 187.12898Q26.284374 186.5821 26.284374 185.5196L26.284374 181.73836L27.26875 181.73836L27.26875 185.48836Q27.26875 186.81648 28.346874 186.81648Q29.4875 186.81648 29.8625 185.97273L29.8625 181.73836L30.8625 181.73836L30.8625 187.55086L29.909374 187.55086L29.89375 186.97273ZM32.065624 184.59773Q32.065624 183.25398 32.690624 182.44148Q33.33125 181.62898 34.346874 181.62898Q35.378124 181.62898 35.971874 182.3321L35.971874 179.30086L36.971874 179.30086L36.971874 187.55086L36.05 187.55086L36.003124 186.92586Q35.409374 187.66023 34.346874 187.66023Q33.33125 187.66023 32.690624 186.8321Q32.065624 186.00398 32.065624 184.67586L32.065624 184.59773ZM33.05 184.7071Q33.05 185.69148 33.45625 186.25398Q33.878124 186.81648 34.596874 186.81648Q35.534374 186.81648 35.971874 185.97273L35.971874 183.30086Q35.51875 182.47273 34.596874 182.47273Q33.878124 182.47273 33.45625 183.03523Q33.05 183.59773 33.05 184.7071ZM39.378124 187.55086L38.39375 187.55086L38.39375 181.73836L39.378124 181.73836L39.378124 187.55086ZM38.3 180.19148Q38.3 179.9571 38.440624 179.80086Q38.596874 179.62898 38.89375 179.62898Q39.190624 179.62898 39.33125 179.80086Q39.4875 179.9571 39.4875 180.2071Q39.4875 180.44148 39.33125 180.59773Q39.190624 180.75398 38.89375 180.75398Q38.596874 180.75398 38.440624 180.59773Q38.3 180.44148 38.3 180.19148ZM42.64375 180.3321L42.64375 181.73836L43.7375 181.73836L43.7375 182.50398L42.64375 182.50398L42.64375 186.11336Q42.64375 186.4571 42.784374 186.6446Q42.940624 186.81648 43.284374 186.81648Q43.45625 186.81648 43.76875 186.73836L43.76875 187.55086Q43.3625 187.66023 43.003124 187.66023Q42.33125 187.66023 41.9875 187.25398Q41.659374 186.84773 41.659374 186.11336L41.659374 182.50398L40.596874 182.50398L40.596874 181.73836L41.659374 181.73836L41.659374 180.3321L42.64375 180.3321ZM45.034374 184.59773Q45.034374 183.73836 45.3625 183.06648Q45.70625 182.37898 46.3 182.00398Q46.909374 181.62898 47.675 181.62898Q48.8625 181.62898 49.596874 182.4571Q50.33125 183.2696 50.33125 184.6446L50.33125 184.7071Q50.33125 185.55086 50.003124 186.23836Q49.675 186.91023 49.065624 187.28523Q48.471874 187.66023 47.690624 187.66023Q46.503124 187.66023 45.76875 186.84773Q45.034374 186.0196 45.034374 184.66023L45.034374 184.59773ZM46.034374 184.7071Q46.034374 185.67586 46.4875 186.2696Q46.940624 186.84773 47.690624 186.84773Q48.440624 186.84773 48.878124 186.25398Q49.33125 185.66023 49.33125 184.59773Q49.33125 183.62898 48.878124 183.03523Q48.425 182.44148 47.675 182.44148Q46.940624 182.44148 46.4875 183.03523Q46.034374 183.61336 46.034374 184.7071ZM54.1125 182.62898Q53.878124 182.59773 53.628124 182.59773Q52.64375 182.59773 52.3 183.42586L52.3 187.55086L51.3 187.55086L51.3 181.73836L52.26875 181.73836L52.284374 182.41023Q52.76875 181.62898 53.675 181.62898Q53.95625 181.62898 54.1125 181.7071L54.1125 182.62898ZM57.20625 186.09773L58.55 181.73836L59.628124 181.73836L57.284374 188.44148Q56.7375 189.8946 55.565624 189.8946L55.378124 189.87898L55.003124 189.81648L55.003124 189.00398L55.26875 189.03523Q55.76875 189.03523 56.05 188.81648Q56.33125 188.61336 56.51875 188.0821L56.7375 187.48836L54.675 181.73836L55.753124 181.73836L57.20625 186.09773Z" fill-rule="nonzero"/><path fill="#9e9e9e" d="M24.33125 204.55086L19.20625 204.55086L19.20625 203.8321L21.909374 200.8321Q22.503124 200.1446 22.7375 199.72273Q22.971874 199.28523 22.971874 198.8321Q22.971874 198.22273 22.596874 197.8321Q22.221874 197.44148 21.6125 197.44148Q20.8625 197.44148 20.45625 197.86336Q20.05 198.28523 20.05 199.03523L19.05 199.03523Q19.05 197.9571 19.7375 197.30086Q20.440624 196.62898 21.6125 196.62898Q22.690624 196.62898 23.33125 197.2071Q23.971874 197.7696 23.971874 198.72273Q23.971874 199.87898 22.4875 201.47273L20.39375 203.73836L24.33125 203.73836L24.33125 204.55086ZM29.940624 198.7696Q29.940624 199.36336 29.628124 199.81648Q29.33125 200.2696 28.8 200.53523Q29.409374 200.78523 29.76875 201.30086Q30.128124 201.80086 30.128124 202.44148Q30.128124 203.4571 29.440624 204.06648Q28.753124 204.66023 27.64375 204.66023Q26.503124 204.66023 25.83125 204.06648Q25.159374 203.4571 25.159374 202.44148Q25.159374 201.80086 25.503124 201.30086Q25.846874 200.78523 26.45625 200.5196Q25.940624 200.2696 25.628124 199.81648Q25.33125 199.34773 25.33125 198.7696Q25.33125 197.78523 25.95625 197.2071Q26.596874 196.62898 27.64375 196.62898Q28.675 196.62898 29.3 197.2071Q29.940624 197.78523 29.940624 198.7696ZM29.128124 202.42586Q29.128124 201.7696 28.70625 201.36336Q28.3 200.94148 27.628124 200.94148Q26.95625 200.94148 26.55 201.34773Q26.14375 201.75398 26.14375 202.42586Q26.14375 203.0821 26.534374 203.47273Q26.940624 203.84773 27.64375 203.84773Q28.33125 203.84773 28.721874 203.47273Q29.128124 203.0821 29.128124 202.42586ZM27.64375 197.44148Q27.05 197.44148 26.690624 197.80086Q26.33125 198.16023 26.33125 198.78523Q26.33125 199.37898 26.690624 199.75398Q27.05 200.11336 27.64375 200.11336Q28.2375 200.11336 28.596874 199.75398Q28.95625 199.37898 28.95625 198.78523Q28.95625 198.19148 28.58125 197.81648Q28.20625 197.44148 27.64375 197.44148ZM31.33125 204.03523Q31.33125 203.7696 31.471874 203.59773Q31.628124 203.42586 31.925 203.42586Q32.2375 203.42586 32.39375 203.59773Q32.565624 203.7696 32.565624 204.03523Q32.565624 204.2696 32.39375 204.44148Q32.2375 204.61336 31.925 204.61336Q31.628124 204.61336 31.471874 204.44148Q31.33125 204.2696 31.33125 204.03523ZM38.096874 196.72273L38.096874 197.56648L37.909374 197.56648Q36.753124 197.5821 36.065624 198.25398Q35.378124 198.92586 35.26875 200.12898Q35.89375 199.42586 36.95625 199.42586Q37.9875 199.42586 38.596874 200.1446Q39.20625 200.86336 39.20625 202.00398Q39.20625 203.2071 38.534374 203.94148Q37.878124 204.66023 36.784374 204.66023Q35.659374 204.66023 34.95625 203.80086Q34.253124 202.94148 34.253124 201.5821L34.253124 201.19148Q34.253124 199.03523 35.175 197.8946Q36.096874 196.75398 37.925 196.72273L38.096874 196.72273ZM36.8 200.25398Q36.284374 200.25398 35.846874 200.56648Q35.425 200.86336 35.253124 201.31648L35.253124 201.69148Q35.253124 202.66023 35.690624 203.25398Q36.128124 203.8321 36.784374 203.8321Q37.45625 203.8321 37.83125 203.34773Q38.221874 202.84773 38.221874 202.05086Q38.221874 201.23836 37.83125 200.75398Q37.440624 200.25398 36.8 200.25398ZM40.1125 198.23836Q40.1125 197.53523 40.565624 197.0821Q41.01875 196.61336 41.721874 196.61336Q42.425 196.61336 42.8625 197.0821Q43.315624 197.53523 43.315624 198.2696L43.315624 198.6446Q43.315624 199.36336 42.8625 199.81648Q42.425 200.25398 41.721874 200.25398Q41.034374 200.25398 40.565624 199.81648Q40.1125 199.36336 40.1125 198.61336L40.1125 198.23836ZM40.8625 198.6446Q40.8625 199.06648 41.096874 199.34773Q41.33125 199.61336 41.721874 199.61336Q42.1125 199.61336 42.346874 199.34773Q42.58125 199.0821 42.58125 198.62898L42.58125 198.23836Q42.58125 197.81648 42.346874 197.55086Q42.1125 197.2696 41.70625 197.2696Q41.315624 197.2696 41.08125 197.55086Q40.8625 197.81648 40.8625 198.25398L40.8625 198.6446ZM43.925 202.62898Q43.925 201.92586 44.3625 201.47273Q44.815624 201.0196 45.51875 201.0196Q46.221874 201.0196 46.675 201.47273Q47.128124 201.92586 47.128124 202.67586L47.128124 203.05086Q47.128124 203.75398 46.675 204.2071Q46.2375 204.66023 45.534374 204.66023Q44.83125 204.66023 44.378124 204.22273Q43.925 203.7696 43.925 203.0196L43.925 202.62898ZM44.659374 203.05086Q44.659374 203.47273 44.89375 203.75398Q45.14375 204.0196 45.534374 204.0196Q45.925 204.0196 46.14375 203.75398Q46.378124 203.48836 46.378124 203.03523L46.378124 202.62898Q46.378124 202.2071 46.14375 201.94148Q45.909374 201.67586 45.51875 201.67586Q45.14375 201.67586 44.89375 201.94148Q44.659374 202.2071 44.659374 202.66023L44.659374 203.05086ZM41.95625 203.9571L41.39375 203.59773L45.20625 197.48836L45.76875 197.84773L41.95625 203.9571Z" fill-rule="nonzero"/><path stroke="#757575" stroke-width="1.0" stroke-linecap="butt" d="M18.55 192.05086L144.23334 192.05086L158.1195 192.05086" fill-rule="nonzero"/><path fill="#9e9e9e" d="M160.1195 192.05086C160.1195 190.94629 159.22408 190.05086 158.1195 190.05086C157.01494 190.05086 156.1195 190.94629 156.1195 192.05086C156.1195 193.15543 157.01494 194.05086 158.1195 194.05086C159.22408 194.05086 160.1195 193.15543 160.1195 192.05086" fill-rule="nonzero"/><path fill="#666666" d="M553.95 248.78845L556.1844 242.33533L557.3094 242.33533L554.40314 250.16345L553.4969 250.16345L550.60626 242.33533L551.71564 242.33533L553.95 248.78845ZM559.27814 250.16345L558.29376 250.16345L558.29376 244.35095L559.27814 244.35095L559.27814 250.16345ZM558.2 242.80408Q558.2 242.5697 558.34064 242.41345Q558.4969 242.24158 558.79376 242.24158Q559.09064 242.24158 559.23126 242.41345Q559.3875 242.5697 559.3875 242.8197Q559.3875 243.05408 559.23126 243.21033Q559.09064 243.36658 558.79376 243.36658Q558.4969 243.36658 558.34064 243.21033Q558.2 243.05408 558.2 242.80408ZM564.59064 248.61658Q564.59064 248.22595 564.27814 248.0072Q563.98126 247.77283 563.21564 247.61658Q562.46564 247.4447 562.02814 247.22595Q561.59064 247.0072 561.3719 246.6947Q561.15314 246.3822 561.15314 245.9447Q561.15314 245.22595 561.7625 244.74158Q562.3719 244.24158 563.3094 244.24158Q564.29376 244.24158 564.90314 244.7572Q565.52814 245.2572 565.52814 246.05408L564.52814 246.05408Q564.52814 245.64783 564.1844 245.35095Q563.84064 245.05408 563.3094 245.05408Q562.7625 245.05408 562.45 245.30408Q562.15314 245.53845 562.15314 245.91345Q562.15314 246.27283 562.4344 246.46033Q562.71564 246.6322 563.46564 246.80408Q564.21564 246.97595 564.66876 247.21033Q565.1375 247.42908 565.35626 247.7572Q565.575 248.08533 565.575 248.55408Q565.575 249.33533 564.95 249.80408Q564.34064 250.27283 563.34064 250.27283Q562.6375 250.27283 562.10626 250.02283Q561.575 249.77283 561.2625 249.33533Q560.96564 248.89783 560.96564 248.3822L561.95 248.3822Q561.98126 248.86658 562.35626 249.16345Q562.73126 249.46033 563.34064 249.46033Q563.90314 249.46033 564.2469 249.24158Q564.59064 249.0072 564.59064 248.61658ZM570.79376 249.58533Q570.21564 250.27283 569.09064 250.27283Q568.15314 250.27283 567.66876 249.74158Q567.1844 249.1947 567.1844 248.1322L567.1844 244.35095L568.16876 244.35095L568.16876 248.10095Q568.16876 249.42908 569.2469 249.42908Q570.3875 249.42908 570.7625 248.58533L570.7625 244.35095L571.7625 244.35095L571.7625 250.16345L570.8094 250.16345L570.79376 249.58533ZM576.79376 250.16345Q576.7 249.99158 576.65314 249.55408Q575.95 250.27283 574.9969 250.27283Q574.1375 250.27283 573.575 249.78845Q573.02814 249.30408 573.02814 248.55408Q573.02814 247.64783 573.71564 247.14783Q574.41876 246.6322 575.66876 246.6322L576.6375 246.6322L576.6375 246.17908Q576.6375 245.66345 576.325 245.35095Q576.0125 245.03845 575.40314 245.03845Q574.8719 245.03845 574.5125 245.3197Q574.15314 245.58533 574.15314 245.96033L573.15314 245.96033Q573.15314 245.52283 573.46564 245.11658Q573.77814 244.71033 574.29376 244.47595Q574.825 244.24158 575.46564 244.24158Q576.46564 244.24158 577.02814 244.74158Q577.60626 245.24158 577.6219 246.1322L577.6219 248.80408Q577.6219 249.60095 577.825 250.0697L577.825 250.16345L576.79376 250.16345ZM575.1375 249.41345Q575.60626 249.41345 576.02814 249.17908Q576.45 248.92908 576.6375 248.53845L576.6375 247.35095L575.85626 247.35095Q574.02814 247.35095 574.02814 248.41345Q574.02814 248.8822 574.34064 249.14783Q574.65314 249.41345 575.1375 249.41345ZM580.27814 250.16345L579.29376 250.16345L579.29376 241.91345L580.27814 241.91345L580.27814 250.16345Z" fill-rule="nonzero"/><path fill="#9e9e9e" d="M556.9969 259.33533L556.9969 260.17908L556.8094 260.17908Q555.65314 260.1947 554.96564 260.86658Q554.27814 261.53845 554.16876 262.74158Q554.79376 262.03845 555.85626 262.03845Q556.8875 262.03845 557.4969 262.7572Q558.10626 263.47595 558.10626 264.61658Q558.10626 265.8197 557.4344 266.55408Q556.77814 267.27283 555.6844 267.27283Q554.5594 267.27283 553.85626 266.41345Q553.15314 265.55408 553.15314 264.1947L553.15314 263.80408Q553.15314 261.64783 554.075 260.5072Q554.9969 259.36658 556.825 259.33533L556.9969 259.33533ZM555.7 262.86658Q555.1844 262.86658 554.7469 263.17908Q554.325 263.47595 554.15314 263.92908L554.15314 264.30408Q554.15314 265.27283 554.59064 265.86658Q555.02814 266.4447 555.6844 266.4447Q556.35626 266.4447 556.73126 265.96033Q557.1219 265.46033 557.1219 264.66345Q557.1219 263.85095 556.73126 263.36658Q556.34064 262.86658 555.7 262.86658ZM562.3719 267.16345L561.3719 267.16345L561.3719 260.53845L559.35626 261.27283L559.35626 260.36658L562.21564 259.30408L562.3719 259.30408L562.3719 267.16345ZM565.23126 266.64783Q565.23126 266.3822 565.3719 266.21033Q565.52814 266.03845 565.825 266.03845Q566.1375 266.03845 566.29376 266.21033Q566.46564 266.3822 566.46564 266.64783Q566.46564 266.8822 566.29376 267.05408Q566.1375 267.22595 565.825 267.22595Q565.52814 267.22595 565.3719 267.05408Q565.23126 266.8822 565.23126 266.64783ZM571.90314 263.72595Q571.59064 264.10095 571.15314 264.33533Q570.73126 264.55408 570.21564 264.55408Q569.54376 264.55408 569.02814 264.22595Q568.52814 263.8822 568.2469 263.28845Q567.98126 262.67908 567.98126 261.9447Q567.98126 261.16345 568.27814 260.53845Q568.59064 259.89783 569.1375 259.5697Q569.6844 259.24158 570.40314 259.24158Q571.575 259.24158 572.23126 260.11658Q572.90314 260.97595 572.90314 262.47595L572.90314 262.7572Q572.90314 265.03845 571.9969 266.10095Q571.10626 267.14783 569.27814 267.16345L569.09064 267.16345L569.09064 266.33533L569.29376 266.33533Q570.52814 266.30408 571.1844 265.6947Q571.85626 265.0697 571.90314 263.72595ZM570.3719 263.72595Q570.8719 263.72595 571.29376 263.42908Q571.71564 263.11658 571.91876 262.66345L571.91876 262.2572Q571.91876 261.28845 571.48126 260.67908Q571.0594 260.0697 570.41876 260.0697Q569.7625 260.0697 569.35626 260.5697Q568.96564 261.0697 568.96564 261.8822Q568.96564 262.6947 569.34064 263.21033Q569.73126 263.72595 570.3719 263.72595ZM574.0125 260.85095Q574.0125 260.14783 574.46564 259.6947Q574.91876 259.22595 575.6219 259.22595Q576.325 259.22595 576.7625 259.6947Q577.21564 260.14783 577.21564 260.8822L577.21564 261.2572Q577.21564 261.97595 576.7625 262.42908Q576.325 262.86658 575.6219 262.86658Q574.9344 262.86658 574.46564 262.42908Q574.0125 261.97595 574.0125 261.22595L574.0125 260.85095ZM574.7625 261.2572Q574.7625 261.67908 574.9969 261.96033Q575.23126 262.22595 575.6219 262.22595Q576.0125 262.22595 576.2469 261.96033Q576.48126 261.6947 576.48126 261.24158L576.48126 260.85095Q576.48126 260.42908 576.2469 260.16345Q576.0125 259.8822 575.60626 259.8822Q575.21564 259.8822 574.98126 260.16345Q574.7625 260.42908 574.7625 260.86658L574.7625 261.2572ZM577.825 265.24158Q577.825 264.53845 578.2625 264.08533Q578.71564 263.6322 579.41876 263.6322Q580.1219 263.6322 580.575 264.08533Q581.02814 264.53845 581.02814 265.28845L581.02814 265.66345Q581.02814 266.36658 580.575 266.8197Q580.1375 267.27283 579.4344 267.27283Q578.73126 267.27283 578.27814 266.83533Q577.825 266.3822 577.825 265.6322L577.825 265.24158ZM578.5594 265.66345Q578.5594 266.08533 578.79376 266.36658Q579.04376 266.6322 579.4344 266.6322Q579.825 266.6322 580.04376 266.36658Q580.27814 266.10095 580.27814 265.64783L580.27814 265.24158Q580.27814 264.8197 580.04376 264.55408Q579.8094 264.28845 579.41876 264.28845Q579.04376 264.28845 578.79376 264.55408Q578.5594 264.8197 578.5594 265.27283L578.5594 265.66345ZM575.85626 266.5697L575.29376 266.21033L579.10626 260.10095L579.66876 260.46033L575.85626 266.5697Z" fill-rule="nonzero"/><path stroke="#757575" stroke-width="1.0" stroke-linecap="butt" d="M581.45 254.66345L455.76666 254.66345L432.44318 254.66345" fill-rule="nonzero"/><path fill="#9e9e9e" d="M434.44318 254.66345C434.44318 253.55887 433.54773 252.66345 432.44318 252.66345C431.3386 252.66345 430.44318 253.55887 430.44318 254.66345C430.44318 255.76802 431.3386 256.66345 432.44318 256.66345C433.54773 256.66345 434.44318 255.76802 434.44318 254.66345" fill-rule="nonzero"/><path fill="#000000" d="M21.721874 30.534374L21.721874 35.55L20.034374 35.55L20.034374 22.753124L24.753124 22.753124Q26.8625 22.753124 28.05 23.83125Q29.2375 24.89375 29.2375 26.659374Q29.2375 28.534374 28.065624 29.534374Q26.909374 30.534374 24.7375 30.534374L21.721874 30.534374ZM21.721874 29.159374L24.753124 29.159374Q26.1125 29.159374 26.83125 28.51875Q27.55 27.878124 27.55 26.675Q27.55 25.534374 26.83125 24.8625Q26.1125 24.175 24.846874 24.14375L21.721874 24.14375L21.721874 29.159374ZM30.346874 30.70625Q30.346874 29.315624 30.89375 28.20625Q31.45625 27.08125 32.425 26.471874Q33.409374 25.8625 34.659374 25.8625Q36.6125 25.8625 37.8 27.20625Q39.003124 28.55 39.003124 30.784374L39.003124 30.89375Q39.003124 32.284374 38.471874 33.39375Q37.940624 34.4875 36.95625 35.1125Q35.971874 35.721874 34.690624 35.721874Q32.753124 35.721874 31.55 34.378124Q30.346874 33.034374 30.346874 30.815624L30.346874 30.70625ZM31.9875 30.89375Q31.9875 32.4875 32.721874 33.440624Q33.45625 34.39375 34.690624 34.39375Q35.925 34.39375 36.64375 33.425Q37.378124 32.45625 37.378124 30.70625Q37.378124 29.14375 36.628124 28.175Q35.89375 27.20625 34.659374 27.20625Q33.45625 27.20625 32.721874 28.159374Q31.9875 29.1125 31.9875 30.89375ZM42.55 35.55L40.925 35.55L40.925 26.034374L42.55 26.034374L42.55 35.55ZM40.784374 23.51875Q40.784374 23.128124 41.01875 22.8625Q41.26875 22.58125 41.7375 22.58125Q42.221874 22.58125 42.471874 22.8625Q42.721874 23.128124 42.721874 23.51875Q42.721874 23.909374 42.471874 24.175Q42.221874 24.440624 41.7375 24.440624Q41.26875 24.440624 41.01875 24.175Q40.784374 23.909374 40.784374 23.51875ZM46.315624 26.034374L46.378124 27.2375Q47.45625 25.8625 49.221874 25.8625Q52.2375 25.8625 52.253124 29.26875L52.253124 35.55L50.628124 35.55L50.628124 29.253124Q50.628124 28.221874 50.159374 27.7375Q49.70625 27.2375 48.721874 27.2375Q47.940624 27.2375 47.33125 27.659374Q46.7375 28.08125 46.409374 28.76875L46.409374 35.55L44.784374 35.55L44.784374 26.034374L46.315624 26.034374ZM56.9875 23.7375L56.9875 26.034374L58.76875 26.034374L58.76875 27.3L56.9875 27.3L56.9875 33.190624Q56.9875 33.76875 57.221874 34.05Q57.45625 34.33125 58.034374 34.33125Q58.315624 34.33125 58.8 34.2375L58.8 35.55Q58.159374 35.721874 57.565624 35.721874Q56.471874 35.721874 55.909374 35.065624Q55.3625 34.409374 55.3625 33.190624L55.3625 27.3L53.628124 27.3L53.628124 26.034374L55.3625 26.034374L55.3625 23.7375L56.9875 23.7375ZM66.31563 33.034374Q66.31563 32.3625 65.81563 32.003124Q65.33125 31.64375 64.09688 31.378124Q62.8625 31.1125 62.128124 30.753124Q61.409374 30.378124 61.05 29.8625Q60.70625 29.346874 60.70625 28.64375Q60.70625 27.4875 61.690624 26.675Q62.690624 25.8625 64.22188 25.8625Q65.84688 25.8625 66.84688 26.70625Q67.8625 27.534374 67.8625 28.83125L66.22188 28.83125Q66.22188 28.159374 65.64375 27.690624Q65.08125 27.20625 64.22188 27.20625Q63.33125 27.20625 62.83125 27.596874Q62.33125 27.971874 62.33125 28.596874Q62.33125 29.190624 62.8 29.4875Q63.26875 29.784374 64.4875 30.065624Q65.70625 30.33125 66.45625 30.70625Q67.22188 31.08125 67.58125 31.6125Q67.94063 32.14375 67.94063 32.909374Q67.94063 34.190624 66.925 34.95625Q65.90938 35.721874 64.28438 35.721874Q63.14375 35.721874 62.253124 35.315624Q61.378124 34.909374 60.878124 34.190624Q60.378124 33.471874 60.378124 32.628124L62.01875 32.628124Q62.05 33.440624 62.659374 33.925Q63.284374 34.39375 64.28438 34.39375Q65.20625 34.39375 65.75313 34.01875Q66.31563 33.64375 66.31563 33.034374ZM79.31563 33.034374Q79.31563 32.3625 78.81563 32.003124Q78.33125 31.64375 77.09688 31.378124Q75.8625 31.1125 75.12813 30.753124Q74.40938 30.378124 74.05 29.8625Q73.70625 29.346874 73.70625 28.64375Q73.70625 27.4875 74.69063 26.675Q75.69063 25.8625 77.22188 25.8625Q78.84688 25.8625 79.84688 26.70625Q80.8625 27.534374 80.8625 28.83125L79.22188 28.83125Q79.22188 28.159374 78.64375 27.690624Q78.08125 27.20625 77.22188 27.20625Q76.33125 27.20625 75.83125 27.596874Q75.33125 27.971874 75.33125 28.596874Q75.33125 29.190624 75.8 29.4875Q76.26875 29.784374 77.4875 30.065624Q78.70625 30.33125 79.45625 30.70625Q80.22188 31.08125 80.58125 31.6125Q80.94063 32.14375 80.94063 32.909374Q80.94063 34.190624 79.925 34.95625Q78.90938 35.721874 77.28438 35.721874Q76.14375 35.721874 75.25313 35.315624Q74.37813 34.909374 73.87813 34.190624Q73.37813 33.471874 73.37813 32.628124L75.01875 32.628124Q75.05 33.440624 75.65938 33.925Q76.28438 34.39375 77.28438 34.39375Q78.20625 34.39375 78.75313 34.01875Q79.31563 33.64375 79.31563 33.034374ZM86.59688 34.39375Q87.47188 34.39375 88.1125 33.878124Q88.76875 33.346874 88.83125 32.55L90.37813 32.55Q90.33125 33.3625 89.81563 34.1125Q89.3 34.846874 88.425 35.284374Q87.56563 35.721874 86.59688 35.721874Q84.65938 35.721874 83.50313 34.425Q82.3625 33.128124 82.3625 30.878124L82.3625 30.6125Q82.3625 29.221874 82.8625 28.14375Q83.37813 27.065624 84.33125 26.471874Q85.28438 25.8625 86.58125 25.8625Q88.19063 25.8625 89.2375 26.83125Q90.3 27.784374 90.37813 29.315624L88.83125 29.315624Q88.76875 28.39375 88.12813 27.8Q87.50313 27.20625 86.58125 27.20625Q85.34688 27.20625 84.65938 28.096874Q83.9875 28.9875 83.9875 30.675L83.9875 30.971874Q83.9875 32.628124 84.65938 33.51875Q85.33125 34.39375 86.59688 34.39375ZM91.34688 30.70625Q91.34688 29.315624 91.89375 28.20625Q92.45625 27.08125 93.425 26.471874Q94.40938 25.8625 95.65938 25.8625Q97.6125 25.8625 98.8 27.20625Q100.00313 28.55 100.00313 30.784374L100.00313 30.89375Q100.00313 32.284374 99.47188 33.39375Q98.94063 34.4875 97.95625 35.1125Q96.97188 35.721874 95.69063 35.721874Q93.75313 35.721874 92.55 34.378124Q91.34688 33.034374 91.34688 30.815624L91.34688 30.70625ZM92.9875 30.89375Q92.9875 32.4875 93.72188 33.440624Q94.45625 34.39375 95.69063 34.39375Q96.925 34.39375 97.64375 33.425Q98.37813 32.45625 98.37813 30.70625Q98.37813 29.14375 97.62813 28.175Q96.89375 27.20625 95.65938 27.20625Q94.45625 27.20625 93.72188 28.159374Q92.9875 29.1125 92.9875 30.89375ZM106.37813 27.503124Q106.00313 27.440624 105.58125 27.440624Q103.97188 27.440624 103.40938 28.8L103.40938 35.55L101.78438 35.55L101.78438 26.034374L103.3625 26.034374L103.39375 27.14375Q104.19063 25.8625 105.65938 25.8625Q106.12813 25.8625 106.37813 25.9875L106.37813 27.503124ZM111.72188 35.721874Q109.8 35.721874 108.58125 34.45625Q107.3625 33.190624 107.3625 31.065624L107.3625 30.753124Q107.3625 29.346874 107.90938 28.2375Q108.45625 27.128124 109.425 26.503124Q110.39375 25.8625 111.51875 25.8625Q113.37813 25.8625 114.40938 27.08125Q115.44063 28.3 115.44063 30.58125L115.44063 31.253124L108.9875 31.253124Q109.03438 32.659374 109.81563 33.534374Q110.59688 34.39375 111.81563 34.39375Q112.675 34.39375 113.26875 34.05Q113.87813 33.690624 114.31563 33.1125L115.31563 33.89375Q114.1125 35.721874 111.72188 35.721874ZM111.51875 27.20625Q110.53438 27.20625 109.8625 27.925Q109.20625 28.628124 109.05 29.925L113.81563 29.925L113.81563 29.8Q113.7375 28.565624 113.14375 27.89375Q112.55 27.20625 111.51875 27.20625ZM117.37813 30.721874Q117.37813 28.534374 118.40938 27.20625Q119.45625 25.8625 121.14375 25.8625Q122.81563 25.8625 123.78438 27.003124L123.78438 22.05L125.40938 22.05L125.40938 35.55L123.90938 35.55L123.83125 34.534374Q122.8625 35.721874 121.12813 35.721874Q119.47188 35.721874 118.425 34.378124Q117.37813 33.01875 117.37813 30.83125L117.37813 30.721874ZM119.01875 30.89375Q119.01875 32.51875 119.675 33.440624Q120.34688 34.346874 121.51875 34.346874Q123.06563 34.346874 123.78438 32.95625L123.78438 28.58125Q123.05 27.2375 121.55 27.2375Q120.34688 27.2375 119.675 28.175Q119.01875 29.096874 119.01875 30.89375Z" fill-rule="nonzero"/></svg>